<svg xmlns="http://www.w3.org/2000/svg" width="594" height="419" viewBox="0 0 594 419"><style>.st0{fill:none;stroke-width:2}.st0,.st1{stroke:#2c3233;stroke-linecap:round;stroke-linejoin:round}.st1{fill:#e8e8eb}.st1,.st2{stroke-width:2}.st2{fill:none}.st2,.st3{stroke:#2c3233;stroke-linecap:round}.st3{display:inline;fill:#e8e8eb;stroke-width:3;stroke-linejoin:round}.st4{fill:#2c3233}.st5{display:none}</style><g id="Background_1_" class="st5"><path id="Background" class="st3" d="M-220.1-189.3h849v616.6h-849z"/></g><g id="Layer_1"><path id="Keyboard" class="st0" d="M227.5 390.1h139v10h-139z"/><g id="Desk"><path id="Outer" class="st0" d="M36 360.1h522v49H36z"/><path id="Recession" class="st0" d="M212 369.1h170v31H212z"/><path id="Drawer_1_" class="st0" d="M52 369.1h152v31H52z"/><path id="Drawer" class="st0" d="M390 369.1h152v31H390z"/><circle id="Handle_1_" class="st0" cx="128" cy="384.6" r="5.5"/><circle id="Handle" class="st0" cx="466" cy="384.6" r="5.5"/></g><g id="Laptop"><path id="Base" class="st0" d="M202.3 351.2h189.3v8.9H202.3z"/><g id="Top"><g id="Chat_Box_1_1_"><path id="Chat_Box_1_" class="st0" d="M227.5 305h132.3v22.9h-110l-3.5 6.6-3.5-6.6h-15.3z"/><g id="Contents_1_"><path id="Avatar_1_" class="st0" d="M232.5 319.5c0 1.5 1.2 2.7 2.7 2.7h6.2c1.5 0 2.7-1.2 2.7-2.7v-6.2c0-1.5-1.2-2.7-2.7-2.7h-6.2c-1.5 0-2.7 1.2-2.7 2.7v6.2z"/><g id="Text_1_"><g id="Top_Line_1_"><path id="Writing_13_" class="st0" d="M249 310.7h38.2"/><path id="Writing_12_" class="st0" d="M292.4 310.7h9.8"/><path id="Writing_7_" class="st0" d="M307.4 310.7h35.8"/></g><g id="Middle_Line_1_"><path id="Writing_11_" class="st0" d="M249 316.4h23.9"/><path id="Writing_9_" class="st0" d="M278.5 316.4h30.4"/></g><g id="Bottom_Line_1_"><path id="Writing_8_" class="st0" d="M249 322.2h11.2"/></g></g></g></g><g id="Chat_Box_1"><path id="Chat_Box" class="st0" d="M366.5 265.7H234.2v22.9h110l3.5 6.6 3.5-6.6h15.3z"/><g id="Contents"><path id="Avatar" class="st0" d="M250.7 280.2c0 1.5-1.2 2.7-2.7 2.7h-6.2c-1.5 0-2.7-1.2-2.7-2.7V274c0-1.5 1.2-2.7 2.7-2.7h6.2c1.5 0 2.7 1.2 2.7 2.7v6.2z"/><g id="Text"><g id="Top_Line"><path id="Writing_6_" class="st0" d="M255.7 271.4h31.5"/><path id="Writing_5_" class="st0" d="M292.4 271.4h43"/></g><g id="Middle_Line"><path id="Writing_4_" class="st0" d="M255.7 277.2h17.2"/><path id="Writing_3_" class="st0" d="M335.7 277.2h22.5"/><path id="Writing_2_" class="st0" d="M278 277.2h52.9"/></g><g id="Bottom_Line"><path id="Writing_1_" class="st0" d="M255.7 282.9H278"/><path id="Writing" class="st0" d="M282.7 282.9h27.5"/></g></g></g></g><g id="Chat_Box_1_2_"><path id="Chat_Box_2_" class="st0" d="M366.5 305H234.2v22.9h110l3.5 6.6 3.5-6.6h15.3z"/><g id="Contents_2_"><path id="Avatar_2_" class="st0" d="M250.7 319.5c0 1.5-1.2 2.7-2.7 2.7h-6.2c-1.5 0-2.7-1.2-2.7-2.7v-6.2c0-1.5 1.2-2.7 2.7-2.7h6.2c1.5 0 2.7 1.2 2.7 2.7v6.2z"/><g id="Text_2_"><g id="Top_Line_2_"><path id="Writing_19_" class="st0" d="M255.7 310.7h31.5"/><path id="Writing_18_" class="st0" d="M292.4 310.7h43"/></g><g id="Middle_Line_2_"><path id="Writing_17_" class="st0" d="M255.7 316.4h17.2"/><path id="Writing_16_" class="st0" d="M335.7 316.4h22.5"/><path id="Writing_15_" class="st0" d="M278 316.4h52.9"/></g><g id="Bottom_Line_2_"><path id="Writing_14_" class="st0" d="M255.7 322.2H278"/><path id="Writing_10_" class="st0" d="M282.7 322.2h27.5"/></g></g></g></g><path id="Screen" class="st0" d="M219.5 257.7h155v85h-155z"/><path class="st0" d="M211 348.2c0 1.7 1.3 3 3 3h166c1.7 0 3-1.3 3-3v-96c0-1.7-1.3-3-3-3H214c-1.7 0-3 1.3-3 3v96z" id="Case"/></g></g><path id="Mouse" class="st0" d="M415.6 351.3c-6.4 0-11.7 3.9-11.7 8.7h23.3c0-4.8-5.2-8.7-11.6-8.7z"/><path id="Pot" class="st0" d="M460.5 329.2h22.2V360h-22.2z"/><path id="Ruler_1_" class="st0" d="M468.8 323.4v-18.2h-6.6v24h6.6"/><g id="Pot_Label"><path id="Label" class="st1" d="M460.5 341.5h22.2v11.7h-22.2z"/><path id="Line_2_" class="st0" d="M466 341.5v9.8"/><path id="Line_1_" class="st0" d="M472 341.5v9.8"/><path id="Line" class="st0" d="M478 341.5v9.8"/></g><g id="Pencil_1_"><path id="Pencil_2_" class="st0" d="M470.7 329l5.3-16.6-3.4-1-5.2 16.6"/><path id="Rubber" class="st0" d="M471.4 315.4l3.3 1"/></g><g id="Pen"><path class="st0" d="M481.5 329v-14.1H476.8V329M481.5 314.6c0-1.3-1.1-2.4-2.4-2.4-1.3 0-2.4 1.1-2.4 2.4M476.8 327h4.7"/></g><g id="PS4_Controller"><path class="st0" d="M92.6 334.7c-5 0-9.1 11.1-9.1 16.1 0 5 4.1 9.1 9.1 9.1M92.6 359.9c3.4 0 6.4-1.9 7.9-4.7 0 0 1.6-1.6 4.4-1.6 3.1 0 15 4.8 17.6 4.4"/><g id="Bumper"><path class="st1" d="M104.7 356.3c0 2.1-1.7 3.9-3.9 3.9-2.1 0-3.9-1.7-3.9-3.9l-2.6-9.6c0-3.6 2.9-6.4 6.4-6.4 3.6 0 6.4 2.9 6.4 6.4l-2.4 9.6zM94.4 346.7h12.9M96 349.8h9.4M96 352.9h9.4"/></g><path class="st0" d="M152.4 334.7c5 0 9.1 11.1 9.1 16.1 0 5-4.1 9.1-9.1 9.1M152.4 359.9c-3.4 0-6.4-1.9-7.9-4.7 0 0-1.6-1.6-4.4-1.6-3.1 0-15 4.8-17.6 4.4"/><g id="Bumper_1_"><path class="st1" d="M140.2 356.3c0 2.1 1.7 3.9 3.9 3.9 2.1 0 3.9-1.7 3.9-3.9l2.6-9.6c0-3.6-2.9-6.4-6.4-6.4-3.6 0-6.4 2.9-6.4 6.4l2.4 9.6zM150.5 346.7h-12.8M148.9 349.8h-9.3M148.9 352.9h-9.3"/></g><g><path class="st1" d="M102.2 333.7c0-.8 2.6-1.5 5.8-1.5s5.8.7 5.8 1.5"/><ellipse class="st1" cx="108" cy="329" rx="3.5" ry="1.1"/><path class="st1" d="M106.9 330.2h2.1v1.5h-2.1z"/><g><path class="st1" d="M131.2 333.9c0-.8 2.6-1.5 5.8-1.5s5.8.7 5.8 1.5"/><ellipse class="st1" cx="137" cy="329.2" rx="3.5" ry="1.1"/><path class="st1" d="M135.9 330.3h2.1v1.5h-2.1z"/></g></g><g><path class="st1" d="M110.5 334.7h24v9h-24zM107.5 337.7c0 .6-.5 1.1-1.1 1.1-.6 0-1.1-.5-1.1-1.1v-1.9c0-.6.5-1.1 1.1-1.1.6 0 1.1.5 1.1 1.1v1.9zM139.5 337.7c0 .6-.5 1.1-1.1 1.1-.6 0-1.1-.5-1.1-1.1v-1.9c0-.6.5-1.1 1.1-1.1.6 0 1.1.5 1.1 1.1v1.9z"/></g><path class="st0" d="M92.6 334.7h59.8"/><path id="Light" class="st0" d="M134.5 349.4c0 .9-.8 1.7-1.7 1.7 0 0-7.6 2.9-10.3 3-2.6.1-10.3-3-10.3-3-.9 0-1.7-.8-1.7-1.7 0-.9.8-1.7 1.7-1.7h20.6c.9 0 1.7.8 1.7 1.7z"/></g><g id="Polaroids"><g id="Polaroid_2"><g id="Polaroid_1_"><path class="st1" d="M118.034 195.453l45.674-20.1 21.75 49.426-45.672 20.1z"/><path class="st1" d="M124.646 198.04l36.612-16.11 16.112 36.61-36.612 16.113z"/></g><g id="Picture_1_"><circle class="st0" cx="151" cy="208.3" r="9.8"/><path class="st0" d="M143.2 198.2l.7-6.1 4.8 3.6zM158.7 218.4l-.6 6-4.9-3.6zM140.8 216l-6-.6 3.6-4.9zM161.1 200.5l6 .7-3.6 4.8z"/><g><path class="st0" d="M138.3 206.6l-3.8-4.7 6-.9zM163.6 209.9l3.8 4.8-6 .9z"/></g><g><path class="st0" d="M149.3 220.9l-4.7 3.8-.9-6zM152.6 195.6l4.7-3.8 1 6z"/></g></g></g><g id="Polaroid_3"><g id="Polaroid_2_"><path class="st1" d="M96.026 135.692l49.725-4.18 4.525 53.81-49.726 4.18z"/><path class="st1" d="M101.496 140.243l39.86-3.35 3.35 39.86-39.86 3.35z"/></g><g id="Picture_2_"><path class="st0" d="M124.978 150.962l12.257-1.03 2.287 27.204-12.257 1.03zM109.182 159.628l11.66-.98 1.673 19.93-11.66.98z"/><path class="st2" d="M112.868 163.45l.996-.084.084.997-.996.084zM116.862 163.048l.996-.084.084.997-.996.085zM113.155 167.342l.996-.082.083.997-.996.082zM117.163 167.05l.996-.083.083.997-.996.084zM113.562 171.348l.996-.084.084.997-.996.085zM117.564 171.046l.996-.084.084.997-.996.082zM115.454 175.683l1.894-.158.292 3.488-1.894.158zM128.967 155.046l.996-.084.084.996-.996.084zM132.955 154.635l.997-.082.082.997-.997.082zM129.26 158.95l.996-.085.084.996-.996.085zM133.264 158.65l.996-.085.084.996-.996.085z"/><g><path class="st2" d="M129.56 162.952l.998-.084.084.996-.997.084zM133.565 162.652l.997-.084.084.996-.997.084z"/></g><g><path class="st2" d="M129.956 166.936l.996-.082.083.997-.997.083zM133.965 166.645l.997-.084.084.998-.997.084z"/></g><g><path class="st2" d="M130.264 170.95l.997-.083.085.996-.997.084zM134.266 170.648l.997-.084.084.997-.997.085z"/></g><path class="st2" d="M132.153 174.278l1.894-.158.292 3.488-1.895.158z"/><g><path class="st4" d="M111.7 146.8c-.1-1.4.8-2.6 2-3-.6-.3-1.2-.5-1.9-.4-1.9.2-3.2 1.8-3.1 3.6.2 1.9 1.8 3.2 3.6 3.1.7-.1 1.3-.3 1.8-.7-1.2-.2-2.3-1.2-2.4-2.6zM122.558 142.556l1.196-.1.1 1.195-1.195.102zM120.157 147.35l1.196-.1.1 1.196-1.196.1zM129.848 143.048l1.196-.1.1 1.194-1.195.102zM134.55 139.45l1.196-.1.1 1.197-1.195.1zM136.253 145.95l1.196-.1.1 1.197-1.196.1zM113.05 153.55l1.196-.1.1 1.195-1.195.1zM114.954 141.15l1.196-.1.1 1.195-1.195.1zM105.452 147.948l1.196-.1.1 1.195-1.195.1zM106.152 164.356l1.196-.1.1 1.195-1.196.102zM123.454 169.95l1.195-.102.1 1.196-1.196.1zM120.75 155.057l1.197-.1.1 1.195-1.196.1zM140.258 158.55l1.196-.1.1 1.196-1.196.1zM140.752 171.05l1.196-.102.1 1.196-1.195.1zM104.357 142.653l1.195-.1.1 1.196-1.195.1z"/></g></g></g><g id="Polaroid_4"><g id="Polaroid_3_"><path class="st1" d="M45.108 176.793l49.45-6.686 7.237 53.514-49.45 6.687z"/><path class="st1" d="M50.697 181.067l39.64-5.36 5.36 39.64-39.64 5.36z"/></g><g id="Picture_3_"><path class="st0" d="M69.5 182L58 192.9l15.1 4.5z"/><path class="st0" d="M84.6 186.6L69.5 182l3.6 15.4zM88.2 201.9l-3.6-15.3-11.5 10.8zM73.1 197.4l3.6 15.3 11.5-10.8z"/><path class="st0" d="M61.6 208.2l15.1 4.5-3.6-15.3z"/><path class="st0" d="M58 192.9l3.6 15.3 11.5-10.8z"/></g></g><g id="Polaroid_1"><g id="Polaroid"><path class="st1" d="M83.318 196.283l49.41 6.97-7.543 53.47-49.41-6.97z"/><path class="st1" d="M87.59 202.008l39.608 5.584-5.584 39.608-39.608-5.584z"/></g><g id="Picture"><path class="st0" d="M118.8 219.4l-2.4 26.2M105.7 244.1l4.9-25.8M109.9 221.9l8.5 1.2M109.2 226.9l8.8 1.2M108 231.7l9.5 1.4M107.1 236.7l9.7 1.3M106.2 241.6l10.4 1.4M110.6 218.3l8.2 1.1M117.5 213.9l-1.9-1.3-2.2.7-.8 5.3 4.1.6zM112.6 218.6l-.5 3.6M114.7 218.9l-.5 3.6M116.7 219.2l-.5 3.6"/><path class="st1" d="M89.8 240.2c4.5 4.4 13.5 5.1 17.9.4 3.5-3.7 3.4-9.6-.2-13.1-2.9-2.8-7.5-2.7-10.3.3-2.2 2.4-2.2 6.2.1 8.4 1.9 1.8 4.8 1.7 6.6-.2 1.4-1.5 1.4-3.9-.1-5.4"/><path class="st1" d="M83.2 241.2c4.7 2.1 10.2 0 12.2-4.8 1.7-3.8 0-8.3-3.8-10-3-1.4-6.5 0-7.8 3.1-1.1 2.4 0 5.3 2.4 6.4 1.9.9 4.2 0 5-2 .7-1.6 0-3.4-1.5-4.1M94.3 209s2.8 1.1 2.9 2.2c.1 1 .7-2.5 1.7-2.8M104.9 207.7s.7 1.9.6 2.3c-.2.5 2.9-1.9 2.9-1.9"/></g></g><circle id="Pin_6_" class="st1" cx="107.1" cy="203.3" r="2.5"/><circle id="Pin_5_" class="st1" cx="123" cy="197.4" r="2.5"/><circle id="Pin_4_" class="st1" cx="161.4" cy="179.2" r="2.5"/><circle id="Pin_3_" class="st1" cx="120.1" cy="136.9" r="2.5"/><circle id="Pin_2_" class="st1" cx="73.1" cy="176" r="2.5"/><circle id="Pin_1_" class="st1" cx="61.6" cy="225.5" r="2.5"/><circle id="Pin" class="st1" cx="161.1" cy="230.3" r="2.5"/></g><g id="Post-Its"><g id="Post-It_3"><path class="st1" d="M444.6 226.5l37 12.3 10.6-31.8-3.4-6.8-31.8-10.7z"/><path class="st0" d="M492.2 207l-5.1-1.7 1.7-5.1"/><g><path class="st0" d="M460.8 204.4l20.5 6.9M462.7 215.3l18.9 6.4"/></g></g><g id="Post-It_2"><path class="st1" d="M439.222 151.396l38.633 5.32-5.32 38.633-38.633-5.32z"/><path class="st0" d="M444.2 158.1l15.4 2.1M451.3 163.5l16.4 2.2M445 168.7l17.3 2.3M455.4 176.8l12.3 1.7M442.6 186.2l7.4 1M452 181.7l8.8 1.3"/></g><g id="Post-It_1"><path class="st1" d="M400.8 187.1l5.1 38.6 33.3-4.3 4.6-6.1-4.3-33.3z"/><path class="st0" d="M439.2 221.4l-.7-5.4 5.3-.7"/><g><path class="st0" d="M406.9 193.5l20.4-2.7M423.7 196.8l11.2-1.4M411.2 215.6l22.1-2.9M414.2 205l8.5-1.1"/></g></g></g><g id="Shelf_1_"><path id="Shelf" class="st0" d="M293.7 74.5H517v15H293.7z"/><g id="Stands"><path class="st0" d="M306.4 48.5h4.7v26h-4.7zM499.5 48.5h4.7v26h-4.7z"/></g></g><g id="Books"><path class="st0" d="M311.1 51.2h14.2M311.1 35.2h14.2v39.3h-14.2zM311.1 42.2h14.2M325.3 21.9h10.3v52.7h-10.3zM328.5 28v40.4M332.5 28v40.4"/><g><path class="st0" d="M335.7 9.9h11.2v64.7h-11.2zM335.7 14.5h11.2M335.7 18.7h11.2M335.7 22.9h11.2"/><g><path class="st0" d="M335.7 61.5h11.2M335.7 65.7h11.2M335.7 69.9h11.2"/></g></g><g><path class="st0" d="M346.9 27.9H362v46.7h-15.1zM346.9 35.2H362M346.9 38.2H362M351.5 42.2v26.2M354.5 42.2v26.2M357.5 42.2v26.2"/></g><g><path class="st0" d="M362.363 29.342l10.024-3.745 16.59 44.405-10.024 3.745zM364.4 35l10-3.7M365.3 37.3l10-3.7"/><g><path class="st0" d="M375.9 65.8l10-3.7M376.8 68.1l10-3.8"/></g></g></g><g id="Games"><path class="st0" d="M493.8 28.8h5.7v45.7h-5.7zM493.8 39.3h5.7M487.8 28.8h5.7v45.7h-5.7zM487.8 39.3h5.7M481.8 28.8h5.7v45.7h-5.7zM481.8 39.3h5.7M475.8 28.8h5.7v45.7h-5.7zM475.8 39.3h5.7M469.8 28.8h5.7v45.7h-5.7zM469.8 39.3h5.7M463.8 28.8h5.7v45.7h-5.7zM463.8 39.3h5.7"/><g><path class="st0" d="M457.8 28.8h5.7v45.7h-5.7zM457.8 39.3h5.7"/></g><path class="st0" d="M451.8 28.8h5.7v45.7h-5.7zM445.8 28.8h5.7v45.7h-5.7zM439.8 28.8h5.7v45.7h-5.7zM433.8 28.8h5.7v45.7h-5.7z"/></g><g id="Lamp"><path class="st0" d="M491 353h64v7h-64zM510.8 349h24.3v4h-24.3z"/><path class="st1" d="M505.5 272.4l21.4-11.5-13.8-25.6-21.4 11.5-1.2.6c-6.2-3.3-13.5-3.7-19.7-.4-5.3 2.8-8.7 7.8-10 13.5l16.2 30.1c5.5 2 11.5 1.9 16.7-.9 6.2-3.3 9.9-9.6 10.5-16.7l1.3-.6z"/><path class="st1" d="M528.6 248.7l-4.4-8.1-6.4 3.4 4.4 8.2zM549.683 299.42l4.558 3.078-27.313 40.44-4.558-3.078z"/><circle class="st1" cx="523" cy="344" r="5"/><path class="st1" d="M553.607 295.893l-5.172 1.872-18.654-51.53 5.173-1.87z"/><circle class="st1" cx="530.8" cy="242.6" r="5"/><circle class="st1" cx="552.7" cy="300" r="5"/><path class="st0" d="M504.3 240.6v33M507.5 239.3v31.8"/></g></g></svg>